<svg xmlns="http://www.w3.org/2000/svg" viewBox="0 0 250 250">
  <!-- Blue circle background -->
  <circle cx="125" cy="120" r="80" fill="#1c97d3"/>
  
  <!-- KGC Letters -->
  <g fill="#ffffff">
    <!-- K -->
    <path d="M82,85 L95,85 L95,110 L115,85 L132,85 L107,113 L135,155 L117,155 L97,123 L95,125 L95,155 L82,155 Z"/>
    <!-- G -->
    <path d="M140,85 C158,85 172,98 172,115 C172,132 158,146 140,146 C122,146 108,132 108,115 C108,98 122,85 140,85 M140,98 C129,98 121,106 121,115 C121,124 129,132 140,132 C150,132 158,124 158,115 L158,112 L142,112 L142,100 L172,100 L172,115 C172,132 159,146 140,146 C122,146 108,132 108,115 C108,98 122,85 140,85 Z"/>
    <!-- C -->
    <path d="M188,85 C206,85 219,98 219,115 C219,132 206,146 188,146 C170,146 156,132 156,115 C156,98 170,85 188,85 M188,98 C177,98 169,106 169,115 C169,124 177,132 188,132 C199,132 206,124 206,115 C206,106 199,98 188,98 Z"/>
    <!-- TM symbol -->
    <text x="215" y="141" font-size="8">™</text>
  </g>
  
  <!-- Lifestyle Prescription text -->
  <path d="M70,175 C70,175 95,168 125,168 C155,168 180,175 180,175" fill="none" stroke="#7457a6" stroke-width="1.5"/>
  <text x="70" y="180" font-family="Arial" font-size="11" fill="#7457a6" transform="rotate(-8, 70, 180)">Lifestyle</text>
  <text x="140" y="180" font-family="Arial" font-size="11" fill="#7457a6" transform="rotate(8, 180, 180)">Prescription</text>
</svg>